<svg width="111" height="35" viewBox="0 0 111 35" fill="none" xmlns="http://www.w3.org/2000/svg">
<path d="M2.268 26.5V8.3H5.596V15.658L12.33 8.3H16.438L9.73 15.528L16.62 26.5H12.538L7.338 18.076L5.596 19.974V26.5H2.268ZM18.8209 26.5V7.78H22.1489V26.5H18.8209ZM29.9954 26.812C28.886 26.812 27.976 26.6387 27.2654 26.292C26.5547 25.928 26.026 25.4513 25.6794 24.862C25.3327 24.2727 25.1594 23.6227 25.1594 22.912C25.1594 21.716 25.6274 20.7453 26.5634 20C27.4994 19.2547 28.9034 18.882 30.7754 18.882H34.0514V18.57C34.0514 17.686 33.8 17.036 33.2974 16.62C32.7947 16.204 32.1707 15.996 31.4254 15.996C30.7494 15.996 30.16 16.1607 29.6574 16.49C29.1547 16.802 28.8427 17.27 28.7214 17.894H25.4714C25.558 16.958 25.87 16.1433 26.4074 15.45C26.962 14.7567 27.6727 14.228 28.5394 13.864C29.406 13.4827 30.3767 13.292 31.4514 13.292C33.2887 13.292 34.736 13.7513 35.7934 14.67C36.8507 15.5887 37.3794 16.8887 37.3794 18.57V26.5H34.5454L34.2334 24.42C33.852 25.1133 33.3147 25.6853 32.6214 26.136C31.9454 26.5867 31.07 26.812 29.9954 26.812ZM30.7494 24.212C31.7027 24.212 32.4394 23.9 32.9594 23.276C33.4967 22.652 33.8347 21.8807 33.9734 20.962H31.1394C30.2554 20.962 29.6227 21.1267 29.2414 21.456C28.86 21.768 28.6694 22.158 28.6694 22.626C28.6694 23.1287 28.86 23.5187 29.2414 23.796C29.6227 24.0733 30.1254 24.212 30.7494 24.212ZM40.5552 26.5V13.604H43.4932L43.7532 15.788C44.1519 15.0253 44.7239 14.4187 45.4692 13.968C46.2319 13.5173 47.1246 13.292 48.1472 13.292C49.7419 13.292 50.9812 13.7947 51.8652 14.8C52.7492 15.8053 53.1912 17.2787 53.1912 19.22V26.5H49.8632V19.532C49.8632 18.4227 49.6379 17.5733 49.1872 16.984C48.7366 16.3947 48.0346 16.1 47.0812 16.1C46.1452 16.1 45.3739 16.4293 44.7672 17.088C44.1779 17.7467 43.8832 18.6653 43.8832 19.844V26.5H40.5552ZM61.8336 22.652C61.2096 22.652 60.6289 22.5827 60.0916 22.444L59.1296 23.406C59.4243 23.562 59.8229 23.692 60.3256 23.796C60.8283 23.9 61.6429 24.004 62.7696 24.108C64.4856 24.264 65.7336 24.6713 66.5136 25.33C67.2936 25.9887 67.6836 26.8987 67.6836 28.06C67.6836 28.8227 67.4756 29.542 67.0596 30.218C66.6436 30.9113 66.0023 31.466 65.1356 31.882C64.2689 32.3153 63.1596 32.532 61.8076 32.532C59.9703 32.532 58.4883 32.1853 57.3616 31.492C56.2349 30.816 55.6716 29.7933 55.6716 28.424C55.6716 27.2627 56.2349 26.2573 57.3616 25.408C57.0149 25.252 56.7116 25.0873 56.4516 24.914C56.2089 24.7407 55.9923 24.5587 55.8016 24.368V23.77L58.0636 21.378C57.0583 20.494 56.5556 19.3587 56.5556 17.972C56.5556 17.1053 56.7636 16.3167 57.1796 15.606C57.6129 14.8953 58.2196 14.332 58.9996 13.916C59.7796 13.5 60.7243 13.292 61.8336 13.292C62.5616 13.292 63.2376 13.396 63.8616 13.604H68.7496V15.632L66.5396 15.788C66.8863 16.4467 67.0596 17.1747 67.0596 17.972C67.0596 18.8387 66.8516 19.6273 66.4356 20.338C66.0196 21.0487 65.4129 21.612 64.6156 22.028C63.8356 22.444 62.9083 22.652 61.8336 22.652ZM61.8336 20.104C62.5096 20.104 63.0643 19.922 63.4976 19.558C63.9483 19.194 64.1736 18.674 64.1736 17.998C64.1736 17.322 63.9483 16.802 63.4976 16.438C63.0643 16.074 62.5096 15.892 61.8336 15.892C61.1229 15.892 60.5509 16.074 60.1176 16.438C59.6843 16.802 59.4676 17.322 59.4676 17.998C59.4676 18.674 59.6843 19.194 60.1176 19.558C60.5509 19.922 61.1229 20.104 61.8336 20.104ZM58.7136 28.086C58.7136 28.7273 59.0083 29.204 59.5976 29.516C60.2043 29.8453 60.9409 30.01 61.8076 30.01C62.6396 30.01 63.3156 29.8367 63.8356 29.49C64.3556 29.1607 64.6156 28.71 64.6156 28.138C64.6156 27.67 64.4423 27.28 64.0956 26.968C63.7663 26.656 63.0989 26.4653 62.0936 26.396C61.3829 26.344 60.7243 26.266 60.1176 26.162C59.6149 26.4393 59.2509 26.7427 59.0256 27.072C58.8176 27.4013 58.7136 27.7393 58.7136 28.086Z" fill="#212121"/>
<circle cx="96.75" cy="17.5" r="13.75" fill="#00CD81"/>
<circle cx="96.75" cy="17.5" r="7.63889" fill="#99EBCD"/>
</svg>
