<svg width="110" height="35" viewBox="0 0 110 35" fill="none" xmlns="http://www.w3.org/2000/svg">
<path d="M1.768 26.5V8.3H5.096V15.658L11.83 8.3H15.938L9.23 15.528L16.12 26.5H12.038L6.838 18.076L5.096 19.974V26.5H1.768ZM18.3209 26.5V7.78H21.6489V26.5H18.3209ZM29.4954 26.812C28.386 26.812 27.476 26.6387 26.7654 26.292C26.0547 25.928 25.526 25.4513 25.1794 24.862C24.8327 24.2727 24.6594 23.6227 24.6594 22.912C24.6594 21.716 25.1274 20.7453 26.0634 20C26.9994 19.2547 28.4034 18.882 30.2754 18.882H33.5514V18.57C33.5514 17.686 33.3 17.036 32.7974 16.62C32.2947 16.204 31.6707 15.996 30.9254 15.996C30.2494 15.996 29.66 16.1607 29.1574 16.49C28.6547 16.802 28.3427 17.27 28.2214 17.894H24.9714C25.058 16.958 25.37 16.1433 25.9074 15.45C26.462 14.7567 27.1727 14.228 28.0394 13.864C28.906 13.4827 29.8767 13.292 30.9514 13.292C32.7887 13.292 34.236 13.7513 35.2934 14.67C36.3507 15.5887 36.8794 16.8887 36.8794 18.57V26.5H34.0454L33.7334 24.42C33.352 25.1133 32.8147 25.6853 32.1214 26.136C31.4454 26.5867 30.57 26.812 29.4954 26.812ZM30.2494 24.212C31.2027 24.212 31.9394 23.9 32.4594 23.276C32.9967 22.652 33.3347 21.8807 33.4734 20.962H30.6394C29.7554 20.962 29.1227 21.1267 28.7414 21.456C28.36 21.768 28.1694 22.158 28.1694 22.626C28.1694 23.1287 28.36 23.5187 28.7414 23.796C29.1227 24.0733 29.6254 24.212 30.2494 24.212ZM40.0552 26.5V13.604H42.9932L43.2532 15.788C43.6519 15.0253 44.2239 14.4187 44.9692 13.968C45.7319 13.5173 46.6246 13.292 47.6472 13.292C49.2419 13.292 50.4812 13.7947 51.3652 14.8C52.2492 15.8053 52.6912 17.2787 52.6912 19.22V26.5H49.3632V19.532C49.3632 18.4227 49.1379 17.5733 48.6872 16.984C48.2366 16.3947 47.5346 16.1 46.5812 16.1C45.6452 16.1 44.8739 16.4293 44.2672 17.088C43.6779 17.7467 43.3832 18.6653 43.3832 19.844V26.5H40.0552ZM61.3336 22.652C60.7096 22.652 60.1289 22.5827 59.5916 22.444L58.6296 23.406C58.9243 23.562 59.3229 23.692 59.8256 23.796C60.3283 23.9 61.1429 24.004 62.2696 24.108C63.9856 24.264 65.2336 24.6713 66.0136 25.33C66.7936 25.9887 67.1836 26.8987 67.1836 28.06C67.1836 28.8227 66.9756 29.542 66.5596 30.218C66.1436 30.9113 65.5023 31.466 64.6356 31.882C63.7689 32.3153 62.6596 32.532 61.3076 32.532C59.4703 32.532 57.9883 32.1853 56.8616 31.492C55.7349 30.816 55.1716 29.7933 55.1716 28.424C55.1716 27.2627 55.7349 26.2573 56.8616 25.408C56.5149 25.252 56.2116 25.0873 55.9516 24.914C55.7089 24.7407 55.4923 24.5587 55.3016 24.368V23.77L57.5636 21.378C56.5583 20.494 56.0556 19.3587 56.0556 17.972C56.0556 17.1053 56.2636 16.3167 56.6796 15.606C57.1129 14.8953 57.7196 14.332 58.4996 13.916C59.2796 13.5 60.2243 13.292 61.3336 13.292C62.0616 13.292 62.7376 13.396 63.3616 13.604H68.2496V15.632L66.0396 15.788C66.3863 16.4467 66.5596 17.1747 66.5596 17.972C66.5596 18.8387 66.3516 19.6273 65.9356 20.338C65.5196 21.0487 64.9129 21.612 64.1156 22.028C63.3356 22.444 62.4083 22.652 61.3336 22.652ZM61.3336 20.104C62.0096 20.104 62.5643 19.922 62.9976 19.558C63.4483 19.194 63.6736 18.674 63.6736 17.998C63.6736 17.322 63.4483 16.802 62.9976 16.438C62.5643 16.074 62.0096 15.892 61.3336 15.892C60.6229 15.892 60.0509 16.074 59.6176 16.438C59.1843 16.802 58.9676 17.322 58.9676 17.998C58.9676 18.674 59.1843 19.194 59.6176 19.558C60.0509 19.922 60.6229 20.104 61.3336 20.104ZM58.2136 28.086C58.2136 28.7273 58.5083 29.204 59.0976 29.516C59.7043 29.8453 60.4409 30.01 61.3076 30.01C62.1396 30.01 62.8156 29.8367 63.3356 29.49C63.8556 29.1607 64.1156 28.71 64.1156 28.138C64.1156 27.67 63.9423 27.28 63.5956 26.968C63.2663 26.656 62.5989 26.4653 61.5936 26.396C60.8829 26.344 60.2243 26.266 59.6176 26.162C59.1149 26.4393 58.7509 26.7427 58.5256 27.072C58.3176 27.4013 58.2136 27.7393 58.2136 28.086Z" fill="#E3E3E3"/>
<circle cx="96.25" cy="17.5" r="13.75" fill="#00CD81"/>
<circle cx="96.25" cy="17.5" r="7.63889" fill="#99EBCD"/>
</svg>
